<svg width="285" height="720" viewBox="0 0 285 720" fill="none" xmlns="http://www.w3.org/2000/svg">
<g filter="url(#filter0_d)">
<path fill-rule="evenodd" clip-rule="evenodd" d="M-44.5688 35.7379C25.0345 41.1368 95.2707 72.5092 137.783 127.885C176.213 177.943 147.206 250.205 166.266 310.366C185.086 369.771 261.387 413.007 247.346 473.72C233.454 533.791 153.326 546.352 103.341 582.451C53.557 618.405 16.7016 680.403 -44.5688 684.542C-106.687 688.738 -163.546 647.313 -207.746 603.465C-247.61 563.919 -249.98 503.687 -276.675 454.286C-312.247 388.457 -395.562 341.325 -389.707 266.728C-383.825 191.799 -311.163 139.71 -248.701 97.9061C-188.106 57.3515 -117.265 30.099 -44.5688 35.7379Z" fill="#C4D0EE"/>
</g>
<defs>
<filter id="filter0_d" x="-425" y="0" width="709.06" height="719.835" filterUnits="userSpaceOnUse" color-interpolation-filters="sRGB">
<feFlood flood-opacity="0" result="BackgroundImageFix"/>
<feColorMatrix in="SourceAlpha" type="matrix" values="0 0 0 0 0 0 0 0 0 0 0 0 0 0 0 0 0 0 127 0" result="hardAlpha"/>
<feOffset/>
<feGaussianBlur stdDeviation="17.5"/>
<feComposite in2="hardAlpha" operator="out"/>
<feColorMatrix type="matrix" values="0 0 0 0 0 0 0 0 0 0 0 0 0 0 0 0 0 0 0.25 0"/>
<feBlend mode="normal" in2="BackgroundImageFix" result="effect1_dropShadow"/>
<feBlend mode="normal" in="SourceGraphic" in2="effect1_dropShadow" result="shape"/>
</filter>
</defs>
</svg>
