<svg width="18" height="18" viewBox="0 0 18 18" fill="none" xmlns="http://www.w3.org/2000/svg">
<path d="M17.4557 8.09473L1.35155 0.095958C1.18941 0.0149865 1.0088 -0.0156778 0.830771 0.00753903C0.652746 0.0307558 0.484638 0.106898 0.346041 0.22709C0.207444 0.347282 0.104066 0.506575 0.0479555 0.686402C-0.00815531 0.86623 -0.0146878 1.05919 0.0291195 1.24278L1.86594 8.99959L0.0291195 16.7564C-0.0150977 16.9401 -0.00885088 17.1332 0.0471293 17.3133C0.10311 17.4933 0.206509 17.6528 0.345231 17.7731C0.483953 17.8934 0.652264 17.9696 0.830473 17.9926C1.00868 18.0156 1.18942 17.9846 1.35155 17.9032L17.4557 9.90446C17.6184 9.82371 17.756 9.69574 17.8524 9.53551C17.9488 9.37528 18 9.18939 18 8.99959C18 8.80979 17.9488 8.62391 17.8524 8.46368C17.756 8.30344 17.6184 8.17548 17.4557 8.09473ZM2.35096 15.1956L3.14574 11.8392L8.52642 8.99959L3.14574 6.16003L2.35096 2.80354L14.8269 8.99959L2.35096 15.1956Z" fill="#D2A283"/>
</svg>
