<svg width="196" height="36" viewBox="0 0 196 36" fill="none" xmlns="http://www.w3.org/2000/svg">
<path d="M42.5572 30.659C44.2803 30.659 45.7132 30.5098 46.856 30.2116C47.9988 29.9133 49.0802 29.5185 50.0999 29.0272L51.3131 33.3962C50.1878 33.9226 48.8868 34.3524 47.4099 34.6859C45.933 35.0192 44.122 35.1859 41.977 35.1859C39.6913 35.1859 37.5551 34.8086 35.5683 34.0542C33.5816 33.2997 31.8585 32.1943 30.3992 30.738C28.9399 29.2816 27.7883 27.4919 26.9443 25.3688C26.1004 23.2457 25.6784 20.8156 25.6784 18.0783C25.6784 15.4114 26.0828 13.0163 26.8916 10.8932C27.7004 8.77009 28.8344 6.97161 30.2937 5.49772C31.753 4.02388 33.4937 2.90092 35.5156 2.12888C37.5375 1.35684 39.7617 0.970825 42.188 0.970825C44.4034 0.970825 46.2231 1.15505 47.6472 1.52355C49.0714 1.89199 50.3285 2.37453 51.4186 2.97111L50.0999 7.23483C48.9043 6.70844 47.7703 6.28733 46.6978 5.9715C45.6253 5.65566 44.3506 5.49772 42.8737 5.49772C41.3616 5.49772 39.9287 5.72585 38.5749 6.18205C37.221 6.63826 36.0431 7.3752 35.0409 8.39289C34.0387 9.41051 33.2387 10.7177 32.6409 12.3144C32.0432 13.9111 31.7442 15.8325 31.7442 18.0783C31.7442 20.3243 32.0343 22.2456 32.6146 23.8423C33.1948 25.439 33.9684 26.7374 34.9354 27.7376C35.9024 28.7377 37.0452 29.4746 38.3639 29.9483C39.6826 30.4221 41.0803 30.659 42.5572 30.659ZM70.045 25.9741L70.0513 21.6578H73.8885L71.9369 16.2887C71.3391 14.8148 70.8204 13.4374 70.3808 12.1565C69.9413 10.8756 69.4754 9.41051 68.9831 7.76122H68.8776C68.3501 9.30524 67.8578 10.7353 67.4007 12.0512C66.9436 13.3672 66.4161 14.7972 65.8183 16.3413L63.8139 21.6578H67.9049L67.9238 25.9741C66.0792 25.9741 64.2345 25.9741 62.3898 25.9741L59.1195 34.6595H53.2647L66.3458 1.49721H71.7259L84.6487 34.6595H78.7411L75.4181 25.9741H70.045ZM98.6265 0.970825C102.248 0.970825 105.413 1.63759 108.121 2.97111L106.802 7.44539C105.325 6.74353 103.963 6.2259 102.714 5.89255C101.466 5.55914 100.209 5.39244 98.9429 5.39244C97.0441 5.39244 95.5496 5.79603 94.4595 6.60316C93.3695 7.41029 92.8244 8.5332 92.8244 9.972C92.8244 11.2353 93.2464 12.2355 94.0903 12.9724C94.9343 13.7093 96.3057 14.3761 98.2045 14.9727L101.475 16.0254C104.358 16.9379 106.468 18.2099 107.804 19.8417C109.141 21.4736 109.809 23.3597 109.809 25.5004C109.809 26.9392 109.527 28.2551 108.965 29.4483C108.402 30.6414 107.602 31.6591 106.565 32.5014C105.527 33.3436 104.27 34.0015 102.793 34.4753C101.317 34.949 99.6814 35.1859 97.8881 35.1859C96.0947 35.1859 94.3101 35.0192 92.5343 34.6859C90.7585 34.3524 89.0267 33.7822 87.3388 32.9751L88.6574 28.5535C90.1695 29.2904 91.6464 29.8431 93.0882 30.2116C94.5298 30.58 96.0419 30.7642 97.6243 30.7642C99.5232 30.7642 101.07 30.3607 102.266 29.5536C103.462 28.7464 104.059 27.5533 104.059 25.9741C104.059 24.8512 103.646 23.851 102.82 22.9737C101.993 22.0964 100.385 21.2718 97.9935 20.4997L94.8815 19.4996C92.4552 18.6925 90.5475 17.6134 89.1585 16.2623C87.7696 14.9113 87.075 13.0251 87.075 10.6037C87.075 7.69104 88.0596 5.35735 90.0289 3.60277C91.9981 1.84814 94.8639 0.970825 98.6265 0.970825ZM121.624 1.49721V34.6595H115.98V1.49721H121.624ZM129.641 1.49721H134.652L148.577 21.342C149.21 22.2544 149.808 23.1668 150.371 24.0792C150.933 24.9916 151.408 25.8162 151.795 26.5532H151.9C151.724 23.9563 151.636 21.3683 151.636 18.789C151.636 16.2097 151.636 13.6041 151.636 10.9722V1.49721H157.069V34.6595H152.058L138.503 15.4464C137.835 14.4989 137.184 13.4725 136.551 12.3671C135.918 11.2617 135.373 10.2703 134.916 9.393H134.81C134.986 12.1302 135.074 14.8411 135.074 17.5257C135.074 20.2102 135.074 22.9035 135.074 25.6057V34.6595H129.641V1.49721ZM179.434 0.970825C181.719 0.970825 183.829 1.33927 185.763 2.07621C187.697 2.81316 189.368 3.90103 190.774 5.33983C192.181 6.77863 193.28 8.56829 194.071 10.7089C194.862 12.8496 195.258 15.3061 195.258 18.0783C195.258 20.8156 194.853 23.2457 194.044 25.3688C193.236 27.4919 192.11 29.2816 190.669 30.738C189.227 32.1943 187.53 33.2997 185.579 34.0542C183.627 34.8086 181.508 35.1859 179.223 35.1859C176.937 35.1859 174.827 34.8174 172.893 34.0805C170.959 33.3436 169.289 32.2557 167.882 30.8169C166.476 29.3781 165.377 27.5972 164.586 25.4741C163.794 23.351 163.399 20.8857 163.399 18.0783C163.399 15.3412 163.803 12.911 164.612 10.7879C165.421 8.66481 166.546 6.87509 167.988 5.41877C169.43 3.96246 171.126 2.85701 173.078 2.10255C175.029 1.34809 177.148 0.970825 179.434 0.970825ZM169.465 18.0783C169.465 20.219 169.728 22.0877 170.256 23.6844C170.783 25.2811 171.495 26.6058 172.392 27.6586C173.289 28.7113 174.344 29.4921 175.557 30.001C176.77 30.5098 178.062 30.7642 179.434 30.7642C180.805 30.7642 182.089 30.5098 183.284 30.001C184.48 29.4921 185.508 28.7113 186.37 27.6586C187.231 26.6058 187.917 25.2811 188.427 23.6844C188.937 22.0877 189.192 20.219 189.192 18.0783C189.192 15.8676 188.928 13.9638 188.401 12.3671C187.873 10.7704 187.161 9.45443 186.264 8.41916C185.368 7.38396 184.313 6.62068 183.1 6.12938C181.886 5.63809 180.594 5.39244 179.223 5.39244C177.851 5.39244 176.568 5.6469 175.372 6.15572C174.177 6.66453 173.148 7.44539 172.287 8.49811C171.425 9.55089 170.739 10.8756 170.229 12.4723C169.72 14.0691 169.465 15.9377 169.465 18.0783Z" fill="#C4D0EE"/>
<path d="M0.739777 1.07556V5.60251H15.1395V15.7091H1.9002V20.1834H15.1395V34.2379H20.7834V1.07556H0.739777Z" fill="#D2A283"/>
</svg>
