<svg width="18" height="18" viewBox="0 0 18 18" fill="none" xmlns="http://www.w3.org/2000/svg">
<g clip-path="url(#clip0)">
<path d="M17.0458 1.04463H14.9665V0.140612C14.9665 0.04117 14.8852 -0.0401917 14.7857 -0.0401917H3.2143C3.11486 -0.0401917 3.0335 0.04117 3.0335 0.140612V1.04463H0.954259C0.690522 1.04463 0.437587 1.1494 0.251098 1.33589C0.0646077 1.52238 -0.0401611 1.77531 -0.0401611 2.03905V5.38392C-0.0401611 7.23037 1.31587 8.76494 3.08322 9.04519C3.43127 11.6714 5.54215 13.7416 8.1864 14.0286V16.4062H3.75671C3.35669 16.4062 3.0335 16.7293 3.0335 17.1294V17.8594C3.0335 17.9588 3.11486 18.0402 3.2143 18.0402H14.7857C14.8852 18.0402 14.9665 17.9588 14.9665 17.8594V17.1294C14.9665 16.7293 14.6433 16.4062 14.2433 16.4062H9.81363V14.0286C12.4579 13.7416 14.5688 11.6714 14.9168 9.04519C16.6842 8.76494 18.0402 7.23037 18.0402 5.38392V2.03905C18.0402 1.77531 17.9354 1.52238 17.7489 1.33589C17.5624 1.1494 17.3095 1.04463 17.0458 1.04463ZM3.0335 7.36372C2.19502 7.09477 1.58707 6.30827 1.58707 5.38392V2.67186H3.0335V7.36372ZM16.413 5.38392C16.413 6.31053 15.805 7.09703 14.9665 7.36372V2.67186H16.413V5.38392Z" fill="#C4D0EE"/>
</g>
<defs>
<clipPath id="clip0">
<rect width="18" height="18" fill="white"/>
</clipPath>
</defs>
</svg>
