<svg width="18" height="18" viewBox="0 0 18 18" fill="none" xmlns="http://www.w3.org/2000/svg">
<path d="M16 0H2C0.897 0 0 0.897 0 2V16C0 17.103 0.897 18 2 18H16C17.103 18 18 17.103 18 16V2C18 0.897 17.103 0 16 0ZM5 14.5C4.80295 14.4999 4.60785 14.4611 4.42582 14.3856C4.2438 14.3101 4.07842 14.1995 3.93913 14.0602C3.79984 13.9208 3.68937 13.7553 3.61403 13.5733C3.53868 13.3912 3.49993 13.196 3.5 12.999C3.50007 12.802 3.53894 12.6068 3.61441 12.4248C3.68988 12.2428 3.80046 12.0774 3.93984 11.9381C4.07922 11.7988 4.24467 11.6884 4.42675 11.613C4.60882 11.5377 4.80395 11.4989 5.001 11.499C5.39896 11.4991 5.78056 11.6573 6.06187 11.9388C6.34317 12.2203 6.50113 12.602 6.501 13C6.50087 13.398 6.34265 13.7796 6.06116 14.0609C5.77967 14.3422 5.39796 14.5001 5 14.5ZM5 6.5C4.60204 6.49987 4.22044 6.34165 3.93913 6.06016C3.65783 5.77867 3.49987 5.39696 3.5 4.999C3.50013 4.60104 3.65835 4.21944 3.93984 3.93813C4.22133 3.65683 4.60304 3.49887 5.001 3.499C5.19805 3.49907 5.39315 3.53794 5.57518 3.61341C5.7572 3.68888 5.92258 3.79946 6.06187 3.93884C6.20116 4.07822 6.31163 4.24367 6.38697 4.42575C6.46232 4.60782 6.50107 4.80295 6.501 5C6.50093 5.19705 6.46206 5.39215 6.38659 5.57418C6.31112 5.7562 6.20054 5.92158 6.06116 6.06087C5.92178 6.20016 5.75633 6.31063 5.57425 6.38597C5.39218 6.46132 5.19705 6.50007 5 6.5ZM9 10.5C8.60204 10.4999 8.22044 10.3417 7.93913 10.0602C7.65783 9.77867 7.49987 9.39696 7.5 8.999C7.50013 8.60104 7.65835 8.21944 7.93984 7.93813C8.22133 7.65683 8.60304 7.49887 9.001 7.499C9.39896 7.49913 9.78056 7.65735 10.0619 7.93884C10.3432 8.22033 10.5011 8.60204 10.501 9C10.5009 9.39796 10.3427 9.77956 10.0612 10.0609C9.77967 10.3422 9.39796 10.5001 9 10.5ZM13 14.5C12.803 14.4999 12.6078 14.4611 12.4258 14.3856C12.2438 14.3101 12.0784 14.1995 11.9391 14.0602C11.7998 13.9208 11.6894 13.7553 11.614 13.5733C11.5387 13.3912 11.4999 13.196 11.5 12.999C11.5001 12.802 11.5389 12.6068 11.6144 12.4248C11.6899 12.2428 11.8005 12.0774 11.9398 11.9381C12.0792 11.7988 12.2447 11.6884 12.4267 11.613C12.6088 11.5377 12.804 11.4989 13.001 11.499C13.399 11.4991 13.7806 11.6573 14.0619 11.9388C14.3432 12.2203 14.5011 12.602 14.501 13C14.5009 13.398 14.3427 13.7796 14.0612 14.0609C13.7797 14.3422 13.398 14.5001 13 14.5ZM13 6.5C12.803 6.49993 12.6078 6.46106 12.4258 6.38559C12.2438 6.31012 12.0784 6.19954 11.9391 6.06016C11.7998 5.92078 11.6894 5.75533 11.614 5.57325C11.5387 5.39118 11.4999 5.19605 11.5 4.999C11.5001 4.80195 11.5389 4.60685 11.6144 4.42482C11.6899 4.2428 11.8005 4.07742 11.9398 3.93813C12.0792 3.79884 12.2447 3.68837 12.4267 3.61303C12.6088 3.53768 12.804 3.49893 13.001 3.499C13.399 3.49913 13.7806 3.65735 14.0619 3.93884C14.3432 4.22033 14.5011 4.60204 14.501 5C14.5009 5.39796 14.3427 5.77956 14.0612 6.06087C13.7797 6.34217 13.398 6.50013 13 6.5Z" fill="#C4D0EE"/>
</svg>
